<svg xmlns="http://www.w3.org/2000/svg" width="100" height="100" viewBox="0 0 100 100">
  <path d="M11.505,90H46.4a1.5,1.5,0,0,0,1.5-1.5V53.611a1.5,1.5,0,0,0-2.553-1.058L10.447,87.447A1.5,1.5,0,0,0,11.505,90Z"/>
  <path d="M11.505,10H46.4a1.5,1.5,0,0,1,1.5,1.5V46.389a1.5,1.5,0,0,1-2.553,1.058L10.447,12.553A1.5,1.5,0,0,1,11.505,10Z"/>
  <path d="M88.5,90H53.6a1.5,1.5,0,0,1-1.5-1.5V53.611a1.5,1.5,0,0,1,2.553-1.058L89.553,87.447A1.5,1.5,0,0,1,88.5,90Z"/>
  <path d="M88.5,10H53.6a1.5,1.5,0,0,0-1.5,1.5V46.389a1.5,1.5,0,0,0,2.553,1.058L89.553,12.553A1.5,1.5,0,0,0,88.5,10Z"/>
</svg>
