<svg xmlns="http://www.w3.org/2000/svg" width="100" height="100" viewBox="0 0 100 100">
  <path d="M11.5,10.006H46.392a1.5,1.5,0,0,1,1.5,1.5V46.4a1.5,1.5,0,0,1-2.554,1.058L10.441,12.56A1.5,1.5,0,0,1,11.5,10.006Z"/>
  <path d="M90,46.4V11.5a1.5,1.5,0,0,0-1.5-1.5H53.611a1.5,1.5,0,0,0-1.058,2.554L87.447,47.453A1.5,1.5,0,0,0,90,46.4Z"/>
  <path d="M88.5,91.044H53.608a1.5,1.5,0,0,1-1.5-1.5V54.655A1.5,1.5,0,0,1,54.666,53.6L89.559,88.491A1.5,1.5,0,0,1,88.5,91.044Z"/>
  <path d="M10,54.655V89.548a1.5,1.5,0,0,0,1.5,1.5H46.389a1.5,1.5,0,0,0,1.058-2.553L12.553,53.6A1.5,1.5,0,0,0,10,54.655Z"/>
</svg>
