<?xml version="1.0" encoding="iso-8859-1"?>
<!-- Generator: Adobe Illustrator 26.1.0, SVG Export Plug-In . SVG Version: 6.00 Build 0)  -->
<svg version="1.0" xmlns="http://www.w3.org/2000/svg" xmlns:xlink="http://www.w3.org/1999/xlink" x="0px" y="0px"
	 viewBox="0 0 1920 1920" enable-background="new 0 0 1920 1920" xml:space="preserve">
<g id="Layer_1">
</g>
<g id="Layer_2">
	<path fill="none" stroke="#000000" stroke-width="20" stroke-miterlimit="10" d="M392.836,1504.188
		c0-107.743,0.118-1142.106,0.063-1200.949c-0.063-66.254,99.035-116.357,127.633-59.957
		c37.146,73.255,309.263,604.104,331.211,637.209s65.843,35.1,117.63-18.584c53.428-55.385,480.843-535.849,529.213-589.45
		c48.389-53.622,152.477-83.8,152.746-9.311c0.214,59.099-0.826,1203.799,0,1276.409c1.053,92.53-148.819,136.942-197.025,89.004
		c-50.035-49.757-127.89-134.116-170.843-180.143c-31.121-33.348-61.271-38.669-75.34,0
		c-20.986,57.682-37.364,103.215-49.114,135.491c-10.661,29.284-25.9,60.871-84.409,62.987s-396.444-0.078-479.827-0.078
		C456.683,1646.814,392.836,1611.931,392.836,1504.188z"/>
</g>
</svg>
