<?xml version="1.0" encoding="iso-8859-1"?>
<!-- Generator: Adobe Illustrator 26.2.1, SVG Export Plug-In . SVG Version: 6.00 Build 0)  -->
<svg version="1.0" id="Layer_1" xmlns="http://www.w3.org/2000/svg" xmlns:xlink="http://www.w3.org/1999/xlink" x="0px" y="0px"
	 viewBox="0 0 1920 1920" enable-background="new 0 0 1920 1920" xml:space="preserve">
<path fill="none" stroke="#000000" stroke-width="10" stroke-miterlimit="10" d="M266.095,386.43
	c27.429,0.696,47.334-26.664,55.065-52.99c7.731-26.326,8.917-55.241,23.561-78.445c23.27-36.872,80.656-45.934,114.156-18.027
	s34.953,85.986,2.891,115.534c-20.184,18.601-48.436,24.99-75.293,30.653c-26.857,5.664-55.11,11.993-75.362,30.518
	c-20.253,18.525-28.119,53.559-8.954,73.207c21.342,21.88,59.608,10.923,82.241-9.619c22.633-20.542,38.15-48.803,63.711-65.562
	c25.56-16.759,68.447-13.934,77.568,15.238c9.132,29.208-22.961,55.275-52.777,62.169c-29.815,6.895-63.476,5.684-87.237,24.969
	c-29.022,23.554-31.417,68.396-57.628,95.043c-21.837,22.2-55.355,27.202-82.691,42.117
	c-50.554,27.583-38.445,101.888-19.874,156.401s41.44,82.885,98.319,73.87c46.616-7.389,84.376-40.147,122.676-67.728
	s85.461-51.967,130.957-39.408c37.305,10.298,65.6,47.035,66.03,85.733c0.431,38.698-27.039,76.056-64.106,87.182
	c-24.1,7.234-49.945,4.091-75.006,6.35s-52.43,12.476-62.414,35.572c-11.796,27.288,8.217,60.427,35.803,71.506
	c27.586,11.08,59.149,5.101,86.887-5.593c127.166-49.025,202.706-203.535,163.294-334c-12.839-42.499-37.503-83.067-75.416-106.167
	c-37.912-23.1-90.253-25.122-125.092,2.396c-11.002,8.69-20.079,19.962-32.369,26.709c-12.29,6.747-29.869,7.291-38.379-3.851
	c-7.414-9.707-4.728-23.979,1.6-34.425c17.842-29.453,56.594-38.008,91.027-38.421c34.433-0.414,70.454,4.22,102.049-9.473
	s54.201-55.716,33.467-83.21c-14.414-19.113-41.329-21.891-63.896-29.881c-22.567-7.99-45.325-32.243-33.614-53.122
	c16.316-29.09,69.659-4.655,90.898-30.371c10.503-12.716,7.048-32.717-3.292-45.566c-8.995-11.177-21.88-18.229-34.916-24.471
	c-2.503-1.199-2.447-4.748,0.067-5.923c44.264-20.696,106.136,13.683,109.289,63.297c1.924,30.267-14.075,58.438-21.233,87.909
	s-0.344,68.059,28.454,77.568c23.578,7.785,48.35-8.694,64.412-27.629c16.062-18.935,28.849-41.85,50.41-54.164
	c45.688-26.094,109.48,18.197,110.129,70.807c0.649,52.611-49.309,96.805-101.758,100.976c-22.467,1.787-45.132-2.294-67.558-0.053
	s-46.307,13.014-54.415,34.044c-13.379,34.703,27.129,70.154,64.297,68.836s69.198-24.805,101.292-43.6
	c32.094-18.795,72.154-33.663,105.55-17.292c23.2,11.373,38.034,35.722,61.343,46.871c38.198,18.271,87.086-8.499,102.503-47.935
	c15.417-39.436,3.623-85.153-19.159-120.844c-22.783-35.691-55.398-63.751-85.933-93.085
	c-30.535-29.335-60.166-61.662-74.258-101.591c-6.24-17.682-8.979-38.181,0.188-54.538c9.167-16.357,33.893-24.264,47.409-11.267
	c17.99,17.298-2.903,50.507-27.781,52.495c-24.878,1.988-46.971-14.49-66.845-29.586c-19.874-15.096-43.332-30.434-67.851-25.774
	c-41.421,7.872-49.93,71.018-20.569,101.277c29.361,30.259,77.226,32.919,118.682,25.236c41.456-7.683,81.803-23.674,123.965-23.563
	s88.911,22.841,97.81,64.053c10.882,50.397-38.45,102.951-18.6,150.535c13.645,32.712,58.357,45.114,90.214,29.575
	c31.857-15.539,49.63-52.439,49.38-87.882c-0.251-35.443-15.98-69.235-36.74-97.963c-12.776-17.68-27.791-34.364-35.079-54.923
	s-4.379-46.898,13.553-59.316c23.39-16.198,56.725,0.693,72.661,24.262c15.936,23.569,22.028,52.678,37.769,76.378
	c15.741,23.7,48.632,41.122,72.417,25.51c23.677-15.542,23.994-54.045,48.656-67.972c29.111-16.44,65.293,21.357,58.594,54.111
	s-38.611,54.061-69.986,65.609c-31.375,11.547-65.553,17.41-93.023,36.466c-27.469,19.056-45.656,58.047-27.904,86.377
	c8.508,13.577,23.314,21.81,34.028,33.723c27.595,30.682,18.925,86.081-16.725,106.865c-31.193,18.186-75.273,5.339-94.585-24.37
	c-2.285-3.516,2.911-7.064,5.398-3.688c13.176,17.891,8.99,48.668-8.948,64.349c-22.108,19.327-55.094,20.041-83.726,13.522
	s-55.817-19.135-84.91-23.122c-29.093-3.987-62.557,3.042-78.882,27.451c-9.262,13.849-12.358,32.206-25.407,42.566
	c-18.961,15.053-48.015,4.275-64.766-13.204c-16.752-17.479-27.041-40.562-44.851-56.961c-17.811-16.399-48.988-23.328-64.812-5.004
	c-25.041,28.999,12.996,86.717-18.96,107.856c-15.927,10.536-37.661,1.744-56.126,6.616c-26.283,6.934-37.602,40.698-29.611,66.679
	c7.991,25.981,29.321,45.365,50.361,62.575c23.242,19.011,51.179,38.103,80.747,32.874c29.568-5.229,48.271-50.132,22.665-65.815
	c-27.363-16.759-57.623,20.34-61.339,52.212c-3.716,31.871-0.532,70.189-26.297,89.314c-28.392,21.074-68.047,1.413-97.464-18.205
	c-12.713-8.478-26.569-18.669-28.921-33.768c-2.271-14.578,15.632-30.171,26.847-21.762c0.751,0.563,1.217,1.442,1.276,2.378
	c2.064,32.932-20.425,65.962-51.93,75.917c-30.621,9.675-66.796-3.384-84.625-29.961c-1.167-1.739-3.619-2.007-5.075-0.501
	c-24.754,25.622-56.773,45.191-92.018,49.958c-36.62,4.953-76.54-7.991-99.014-37.325c-27.352-35.701-24.239-85.1-19.107-130.021
	c0.221-1.935-1.285-3.629-3.232-3.645c-57.259-0.47-111.724,45.491-120.222,102.269c-8.678,57.981,31.782,119.21,88.522,133.964
	c43.699,11.362,89.374-2.487,133.92-9.857s96.442-5.701,126.664,27.844c32.529,36.105,22.947,98.315-13.735,130.193
	c-36.681,31.878-92.197,35.593-137.564,18.169c-28.904-11.101-54.873-29.815-84.97-37.086s-68.127,1.91-79.11,30.859
	c-7.815,20.6,2.644,46.365,22.607,55.688c17.437,8.143,39.838,2.675,52.411-11.644c1.866-2.126,5.385-0.944,5.667,1.871
	l3.221,32.131c0.281,2.799-2.836,4.57-5.156,2.978c-12.872-8.834-32.781-7.275-43.024,4.906
	c-12.032,14.31-7.333,39.245,9.082,48.194c18.053,9.842,46.467,3.513,55.36,22.052c13.802,28.769-47.351,55.492-31.747,83.325
	c7.771,13.86,27.837,12.483,43.388,9.218c55.853-11.726,111.705-23.453,167.558-35.179c19.307-4.054,39.572-8.576,54.294-21.707
	s21.053-37.88,8.019-52.689c-15.536-17.653-43.727-10.052-66.739-5.211s-55.781-2.586-55.207-26.094
	c0.522-21.397,28.312-29.194,49.713-29.534c38.449-0.61,77.756,2.804,114.661-8c36.905-10.804,71.814-40.623,73.748-79.028
	c1.905-37.843-27.096-69.054-44.531-102.696c-17.435-33.642-15.487-87,21.26-96.241c32.752-8.236,60.123,28.357,65.111,61.758
	c4.988,33.401-1.369,69.229,12.778,99.895c26.257,56.918,114.078,61.216,160.416,19.002
	c46.337-42.214,57.073-111.783,49.481-174.004c-2.811-23.036-7.726-46.211-4.873-69.242c2.853-23.031,15.522-46.656,37.324-54.609
	c18.744-6.838,41.883-1.536,57.481-13.977c16.417-13.095,15.144-37.768,15.035-58.768c-0.109-21,7.004-47.172,27.723-50.589
	c18.171-2.997,33.465,14.953,38.129,32.769c4.664,17.816,3.013,36.984,8.971,54.409c11.089,32.433,50.882,51.71,83.206,40.307
	c31.047-10.952,49.7-48.266,40.745-79.74c-0.593-2.083-2.995-3.057-4.848-1.938c-31.535,19.04-19.253,76.451,15.797,91.917
	c44.472,19.623,100.889-15.121,110.717-62.726c9.827-47.605-21.078-97.825-65.03-118.587c-9.473-4.475-22.367-7.127-29.122,0.88
	c-11.793,13.979,13.87,31.188,31.483,26.261c38.654-10.813,55.472-55.429,64.557-94.525c9.085-39.096,19.797-83.814,55.348-102.449
	c23.021-12.067,50.534-9.573,76.422-11.904s55.059-13.322,62.668-38.176c13.994-45.705-56.073-85.474-42.95-131.437
	c7.072-24.771,41.692-36.458,62.33-21.042c19.259,14.385,19.342,47.14,1.598,62.677c-1.684,1.475-1.378,4.203,0.588,5.273
	c25.031,13.615,33.332,48.554,26.614,76.947c-7.12,30.094-26.304,55.626-40.819,82.932
	c-28.793,54.166-39.488,117.758-29.996,178.363c5.32,33.97,14.209,75.48-12.403,97.252c-25.151,20.577-64.293,6.948-93.917,20.306
	c-27.56,12.427-39.993,50.262-25.175,76.614c14.252,25.347,50.678,34.674,75.628,20.14c1.617-0.942,3.695-0.395,4.564,1.261
	c22.5,42.856,40.932,101.465,3.739,131.459c-39.458,31.82-113.025,1.523-140.385,44.195c-18.735,29.221,3.695,68.687,32.521,88.025
	c28.826,19.339,64.285,28.702,89.544,52.511c22.561,21.266,30.975,62.343,10.878,82.859c-1.9,1.94-0.827,5.267,1.873,5.555
	c23.251,2.48,40.517,34.231,30.974,57.814c-10.915,26.971-42.381,39.998-71.44,41.487c-68.924,3.532-136.604-47.959-151.587-115.328
	c-9.21-41.413-3.74-92.547-37.811-117.826c-37.096-27.523-104.599-8.48-123.875-50.457c-15.587-33.941,20.771-68.943,55.179-83.469
	c34.409-14.526,76.467-27.246,88.27-62.681c13.144-39.462-25.004-80.92-66.075-87.491c-41.071-6.571-81.789,10.755-119.781,27.686
	c-37.188,16.573-75.461,33.907-103.127,63.776c-27.667,29.869-42.174,75.854-23.876,112.223
	c13.604,27.041,41.654,43.184,68.225,57.683s54.699,30.376,68.715,57.206c13.642,26.115,5.814,65.333-21.536,74.775
	c-1.388,0.479-2.31,1.823-2.206,3.288c1.938,27.368,36.777,39.787,64.707,44.34c28.793,4.693,64.966,17.071,65.588,46.237
	c0.589,27.626-32.106,42.406-59.294,47.341c-34.26,6.219-70.491,8.289-103.109-3.896s-60.715-41.372-62.967-76.119
	c-1.861-28.724,13.352-55.467,20.051-83.46c6.699-27.993-0.175-64.693-27.672-73.202c-26.503-8.202-52.905,16.762-60.921,43.322
	c-8.016,26.56-4.678,55.259-10.242,82.439s-25.622,55.596-53.355,54.861c-25.191-0.668-43.269-24.808-52.189-48.376
	c-8.921-23.568-13.288-49.799-29.516-69.079c-16.228-19.279-51.009-26.015-64.899-4.989c-13.523,20.472,2.595,46.668,15.033,67.817
	c12.438,21.148,17.139,55.518-5.905,63.939c-16.885,6.17-37.46-8.001-52.894,1.218c-14.513,8.669-12.794,30.883-23.703,43.797
	c-17.323,20.507-50.263,5.714-72.438-9.417s-56.985-27.522-71.714-5.078c-13.418,20.446,6.705,46.496,27.152,59.912
	c76.817,50.402,182.912,51.836,261.063,3.529c36.046-22.281,69.199-55.08,111.504-57.528c28.169-1.63,55.014,10.848,80.463,23.032
	c76.98,36.858,160.068,74.693,244.351,61.246c52.765-8.418,101.367-36.597,154.625-40.914
	c45.457-3.684,90.623,10.351,136.229,10.059s97.466-22.08,107.91-66.474c16.732-71.119-82.611-137.994-53.331-204.931
	c15.322-35.026,62.395-53.929,64.609-92.095c0.964-16.614-7.378-32.115-12.971-47.789s-7.894-34.951,3.129-47.419
	c10.989-12.43,49.927-8.192,36.194,10.299c-0.082,0.11-0.174,0.223-0.266,0.325c-18.955,20.91-50.418-23.198-49.103-50.687
	c1.318-27.557,17.861-51.64,28.879-76.933c21.987-50.479,22.221-107.375,22.092-162.435c-0.15-64.508-0.301-129.016-0.451-193.524
	c-0.203-87.207-0.619-175.899-26.059-259.313c-10.091-33.087-24.217-66.188-22.176-100.72c1.996-33.767,19.278-68.506,6.744-99.923
	c-14.859-37.243-61.794-47.461-101.581-52.442c-16.534-2.07-34.416-3.891-48.876,4.389s-21.267,31.098-8.393,41.678
	c12.475,10.252,34.077-11.135,22.947-21.115c-0.677-0.607-1.597-0.871-2.5-0.769c-61.147,6.89-123.786,0.234-182.118-19.359
	c-44.728-15.023-90.109-37.916-136.609-29.918c-34.98,6.016-65.547,19.089-100.792,23.274
	c-50.705,6.021-96.327-27.47-142.961-48.268s-114.084-22.276-135.801,23.937"/>
</svg>
